<svg width="1360" height="214" viewBox="0 0 1360 214" fill="none" xmlns="http://www.w3.org/2000/svg">
<path d="M141.167 37.5685V15.041H0V210.28H24.5509V124.312H119.989V101.785H24.5509V37.5024L141.167 37.5685Z" fill="#214C2C"/>
<path d="M278.802 95.3781C273.777 82.8683 266.105 73.3565 255.786 66.8431C245.467 60.3296 232.832 57.0785 217.881 57.0895C204.462 56.8968 191.264 60.4395 179.823 67.3052C168.572 74.1074 159.403 83.7542 153.283 95.2294C146.693 107.652 143.372 121.487 143.621 135.482C143.361 149.467 146.793 163.281 153.586 175.586C159.989 187.145 169.502 196.768 181.094 203.413C192.686 210.057 205.915 213.47 219.347 213.281C230.235 213.492 241.018 211.173 250.811 206.514C259.593 202.266 267.178 195.976 272.901 188.195C278.571 180.386 282.301 171.39 283.793 161.921H260.777C258.287 170.285 253.055 177.615 245.888 182.782C238.184 188.236 228.851 191.039 219.347 190.753C210.554 190.91 201.874 188.786 194.19 184.597C186.804 180.472 180.662 174.511 176.384 167.318C171.715 159.41 168.888 150.591 168.105 141.489H284.721C285.777 123.269 283.805 107.899 278.802 95.3781ZM169.706 119.87C172.55 107.448 178.278 97.6336 186.888 90.427C195.499 83.2203 206.139 79.6169 218.808 79.6169C229.05 79.4716 238.97 83.121 246.579 89.8331C254.448 96.6326 258.793 106.645 259.614 119.87H169.706Z" fill="#214C2C"/>
<path d="M919.56 95.3779C914.557 82.868 906.885 73.3563 896.543 66.8428C886.201 60.3293 873.566 57.0783 858.638 57.0893C845.225 56.8997 832.033 60.4423 820.598 67.305C809.341 74.1061 800.166 83.7529 794.04 95.2292C787.45 107.652 784.129 121.487 784.379 135.482C784.116 149.469 787.554 163.285 794.361 175.586C800.759 187.148 810.271 196.775 821.864 203.42C833.457 210.065 846.688 213.475 860.122 213.28C871.009 213.493 881.792 211.175 891.586 206.514C900.37 202.271 907.956 195.98 913.675 188.195C919.345 180.386 923.075 171.389 924.568 161.921H901.551C899.072 170.286 893.845 177.618 886.679 182.782C878.967 188.234 869.63 191.036 860.122 190.753C851.328 190.907 842.649 188.784 834.964 184.597C827.578 180.472 821.436 174.511 817.158 167.318C812.496 159.407 809.67 150.589 808.879 141.489H925.495C926.574 123.269 924.596 107.899 919.56 95.3779ZM810.464 119.87C813.33 107.448 819.058 97.6334 827.646 90.4267C836.234 83.2201 846.874 79.6167 859.565 79.6167C869.808 79.4681 879.729 83.1179 887.336 89.8328C895.205 96.6324 899.556 106.645 900.388 119.87H810.464Z" fill="#214C2C"/>
<path d="M987.901 51.0722V60.0836H1026.26V82.611H987.901V210.268H963.418V82.611H936.118V60.0836H963.418V51.0722C963.418 39.0575 965.621 29.2928 970.027 21.7781C974.195 14.4844 980.652 8.69779 988.441 5.27432C997 1.6381 1006.26 -0.151737 1015.59 0.0262447H1029.72V24.0558H1015.59C1010.84 23.7977 1006.09 24.5116 1001.64 26.1518C997.46 27.7289 993.939 30.6347 991.644 34.4037C989.098 38.2986 987.901 43.8601 987.901 51.0722Z" fill="#214C2C"/>
<path d="M1346.31 95.2265C1341.11 84.0314 1332.97 74.393 1322.7 67.3023C1312.62 60.4694 1300.6 56.8973 1288.34 57.0866C1276.87 57.0866 1267.51 59.1385 1260.26 63.2425C1256.42 65.392 1252.93 68.1083 1249.93 71.2961C1247.44 74.0085 1245.3 77.0004 1243.54 80.2084C1239.87 86.7703 1237.4 93.9078 1236.24 101.3H1234.65L1236.17 0H1211.62V210.505H1236.56L1234.87 200.768L1229.22 168.371H1233.44C1233.9 173.509 1235.26 178.532 1237.45 183.225C1240.02 188.577 1243.59 193.413 1247.97 197.484C1253.2 202.732 1259.49 206.851 1266.44 209.577C1273.4 212.302 1280.85 213.574 1288.34 213.311C1295.27 213.355 1302.15 212.239 1308.69 210.01C1313.44 208.339 1317.94 206.076 1322.1 203.277C1332.39 196.257 1340.64 186.736 1346.04 175.65C1352.14 163.138 1355.18 149.407 1354.93 135.545C1355.17 121.644 1352.23 107.866 1346.31 95.2265ZM1324.05 163.866C1320.24 171.736 1314.36 178.473 1307.02 183.39C1299.66 188.154 1290.99 190.617 1282.17 190.453C1271.74 190.453 1263.14 187.95 1256.39 182.944C1250.98 178.916 1246.56 173.749 1243.47 167.827C1242.63 166.243 1241.87 164.618 1241.19 162.958C1237.99 154.907 1236.28 146.362 1236.13 137.724C1236.13 136.981 1236.13 136.239 1236.13 135.479C1235.93 125.593 1237.65 115.759 1241.19 106.499C1244.21 98.6415 1249.55 91.8435 1256.54 86.9747C1263.41 82.2766 1271.95 79.9224 1282.17 79.9114C1297.51 79.9114 1309.38 85.1703 1317.76 95.6887C1326.15 106.207 1330.34 119.471 1330.34 135.479C1330.53 145.308 1328.38 155.045 1324.05 163.915V163.866Z" fill="#214C2C"/>
<path d="M1152.58 60.113L1153.22 63.8098L1159.96 102.231H1155.75C1155.33 95.1782 1153.35 88.3002 1149.92 82.0832C1146.49 75.8662 1141.71 70.4618 1135.92 66.2524C1123.51 57.3569 1110.45 57.1917 1103.88 57.0927C1091.3 56.9464 1078.96 60.5056 1068.47 67.3084C1057.76 74.2955 1049.14 83.9292 1043.46 95.2326C1037.43 107.799 1034.28 121.508 1034.26 135.393C1034.23 149.278 1037.31 163 1043.29 175.59C1048.8 186.694 1057.16 196.212 1067.54 203.217C1072.78 206.738 1078.56 209.407 1084.67 211.122C1089.94 212.542 1095.38 213.269 1100.84 213.284C1105.53 213.284 1119.17 213.466 1131.06 206.93C1151.29 195.84 1155.21 171.728 1155.75 168.146H1159.96L1154.33 200.428L1152.64 210.33H1177.55V60.1461L1152.58 60.113ZM1152.96 137.482C1152.86 146.19 1151.21 154.814 1148.07 162.964C1147.37 164.757 1146.56 166.51 1145.65 168.213C1142.59 174.008 1138.22 179.047 1132.88 182.95C1126.01 187.945 1117.37 190.449 1106.95 190.46C1098.18 190.583 1089.57 188.122 1082.24 183.396C1074.83 178.52 1068.89 171.775 1065.06 163.872C1060.74 155.016 1058.59 145.297 1058.77 135.485C1058.77 119.455 1062.97 106.191 1071.35 95.6948C1079.74 85.1984 1091.6 79.9395 1106.95 79.9175C1117.18 79.9175 1125.72 82.2717 1132.58 86.9808C1138.07 90.7785 1142.55 95.81 1145.65 101.653C1146.49 103.23 1147.25 104.849 1147.92 106.505C1151.2 114.943 1152.91 123.885 1152.98 132.911C1152.98 133.752 1152.98 134.561 1152.98 135.485C1152.98 136.41 1152.98 136.822 1152.96 137.515V137.482Z" fill="#214C2C"/>
<path d="M542.274 109.947V210.273H517.723V115.954C517.723 104.336 514.963 95.6273 509.444 89.829C503.924 84.0307 495.639 81.126 484.589 81.115C476.365 81.066 468.287 83.2479 461.252 87.4191C459.245 88.6028 457.324 89.921 455.503 91.3637C450.696 95.3083 446.834 100.238 444.189 105.805C441.264 112.166 439.873 119.1 440.125 126.071C440.226 141.288 439.619 170.961 439.164 210.24H414.613V115.921C414.613 104.302 411.853 95.5943 406.334 89.796C400.814 83.9977 392.524 81.0929 381.463 81.0819C373.244 81.0352 365.172 83.217 358.143 87.3861C351.139 91.5191 345.239 97.2209 340.927 104.022C340.775 104.237 340.64 104.451 340.505 104.666C338.123 108.24 336.277 112.131 335.025 116.218C333.832 120.348 333.348 124.642 333.592 128.926V210.207H309.041V60.0232H333.996L326.645 102.141H330.86C331.072 94.4924 333.315 87.0298 337.369 80.4876C340.046 76.3585 343.356 72.6571 347.182 69.5128C350.664 66.5192 354.53 63.9836 358.682 61.9705C363.279 59.756 368.19 58.2316 373.251 57.4485C377.599 56.8208 382.005 56.6769 386.386 57.0194C394.665 57.4155 400.904 57.8279 408.475 60.6171C414.742 62.847 420.41 66.442 425.05 71.1301C429.666 75.9226 433.22 81.5975 435.488 87.7987C436.665 90.9582 437.54 94.2182 438.101 97.5361C438.953 94.8857 439.973 92.2897 441.153 89.7629C444.097 83.2821 448.145 77.3383 453.125 72.1862C457.806 67.3584 463.449 63.5215 469.704 60.9128C475.96 58.3041 482.696 56.9791 489.496 57.0194C497.02 56.9129 504.502 58.1314 511.585 60.6171C517.853 62.847 523.521 66.442 528.16 71.1301C532.777 75.9226 536.33 81.5975 538.598 87.7987C541.151 94.9106 542.396 102.41 542.274 109.947Z" fill="#214C2C"/>
<path d="M775.384 69.6322C775.384 70.0283 775.384 70.4409 775.384 70.8699C774.996 75.4365 774.337 79.9771 773.411 84.469L741.796 197.272L738.423 209.551C738.362 210.586 737.884 211.555 737.094 212.245C736.303 212.935 735.265 213.289 734.208 213.231H717.986C717.464 213.231 716.705 213.083 716.031 211.861C715.471 210.247 715.524 208.489 716.182 206.91L749.08 101.6C750.257 98.0285 751.037 94.3435 751.407 90.6084C751.407 88.3804 750.227 87.0929 748.203 87.0929C746.18 87.0929 743.735 89.0075 740.143 93.1335C734.504 100.169 729.339 107.556 724.681 115.248C717.177 127.032 710.18 137.908 703.266 148.487C695.678 160.039 690.637 167.895 687.888 172.236C680.132 184.156 673.159 196.548 667.013 209.336C665.934 211.911 664.433 213.165 662.444 213.165H646.408C646.159 213.192 645.907 213.157 645.674 213.065C645.442 212.973 645.236 212.826 645.076 212.637C644.553 212.026 644.081 210.525 644.756 206.91L677.653 101.6C678.831 98.0285 679.611 94.3435 679.98 90.6084C679.98 87.5552 678.108 87.0929 676.995 87.0929C675.309 87.0929 673.438 88.0998 671.279 90.1627C668.236 93.3253 665.462 96.7252 662.983 100.329C658.684 106.6 653.76 114.093 648.364 122.609C642.968 131.125 636.105 141.638 627.32 155.006C611.892 178.491 602.146 193.74 598.386 200.342C595.249 205.821 592.771 210.161 592.433 210.624C592.201 210.986 591.929 211.323 591.624 211.63C591.402 211.866 591.153 212.077 590.882 212.257C590.579 212.439 590.292 212.604 590.022 212.736C589.771 212.866 589.512 212.981 589.247 213.083C589.078 213.137 588.902 213.165 588.724 213.165H579.551C578.799 213.249 578.037 213.166 577.322 212.923C576.607 212.68 575.957 212.284 575.42 211.762C574.56 210.673 574.459 208.808 575.15 206.266L602.888 103.943L601.202 104.967C596.045 107.948 590.227 109.663 584.245 109.964C578.264 110.266 572.297 109.146 566.854 106.7L561.796 86.7133L562.015 86.6142C580.849 78.2468 597.121 71.0019 611.302 53.8545C618.602 55.0779 625.974 55.844 633.374 56.1483C634.515 56.0523 635.649 56.4025 636.527 57.1222C637.758 58.5415 636.814 61.4463 636.359 62.6181V62.8655C636.247 64.2031 636.016 65.5284 635.667 66.8262L610.374 150.236L646.341 92.044C651.772 82.8318 658.835 74.6393 667.199 67.8496C674.702 62.0073 680.924 59.0365 685.747 59.0365H692.323C696.437 59.0365 699.506 60.2415 701.412 62.6016C704.565 66.546 704.784 73.857 702.204 84.3534L684.28 147.942L717.818 91.7305C724.141 80.904 731.088 72.652 738.491 67.1892C745.893 61.7265 752.064 59.0365 757.173 59.0365H763.767C765.475 59.0048 767.179 59.2163 768.825 59.6638C770.928 60.1963 772.741 61.5028 773.884 63.3111C774.991 65.2345 775.511 67.4281 775.384 69.6322Z" fill="#214C2C"/>
<path d="M1322.9 18.0259C1322.9 7.43046 1328.79 0.317383 1341.45 0.317383C1354.12 0.317383 1360 7.43046 1360 18.0259C1360 28.6213 1354.2 35.8166 1341.45 35.8166C1328.7 35.8166 1322.9 28.5883 1322.9 18.0259ZM1356.96 18.0259C1356.96 8.86629 1352.51 2.87514 1341.38 2.87514C1330.26 2.87514 1325.82 8.86629 1325.82 18.0259C1325.82 27.1854 1330.17 33.2588 1341.38 33.2588C1352.6 33.2588 1356.96 27.1359 1356.96 18.0259ZM1341.25 19.9897H1336.38V26.9212H1333.43V9.03101H1342.68C1347.51 9.03101 1349.6 10.9125 1349.6 14.4443C1349.6 17.448 1347.74 19.3955 1344.35 19.8576L1350.71 26.6573V26.9212H1347.34L1341.25 19.9897ZM1336.38 11.4574V17.7946H1342.45C1345.04 17.7946 1346.58 16.722 1346.58 14.626C1346.58 12.53 1345.55 11.4574 1342.41 11.4574H1336.38Z" fill="#214C2C"/>
</svg>
