<svg width="1367" height="221" viewBox="0 0 1367 221" fill="none" xmlns="http://www.w3.org/2000/svg">
<path d="M142.345 38.6613V15.4238H0V216.816H24.7556V128.207H120.99V105.054H24.7556V38.6613H142.345Z" fill="#214C2C"/>
<path d="M281.138 98.3639C276.071 85.4598 268.335 75.6483 257.929 68.9295C247.523 62.2107 234.783 58.8572 219.707 58.8685C206.177 58.6697 192.869 62.3241 181.333 69.4062C169.987 76.4228 160.741 86.3736 154.571 98.2105C147.925 111.025 144.577 125.296 144.828 139.732C144.565 154.157 148.026 168.406 154.876 181.1C161.333 193.023 170.925 202.949 182.614 209.803C194.303 216.657 207.642 220.177 221.186 219.982C232.164 220.2 243.038 217.808 252.913 213.002C261.768 208.62 269.416 202.133 275.187 194.106C280.904 186.051 284.665 176.771 286.17 167.004H262.962C260.451 175.631 255.175 183.193 247.949 188.522C240.18 194.148 230.769 197.04 221.186 196.745C212.319 196.906 203.567 194.715 195.819 190.395C188.371 186.139 182.178 179.991 177.864 172.571C173.156 164.414 170.305 155.316 169.516 145.928H287.105C288.171 127.134 286.182 111.279 281.138 98.3639ZM171.131 123.627C173.999 110.814 179.774 100.69 188.457 93.2567C197.139 85.8229 207.868 82.106 220.642 82.106C230.97 81.9561 240.973 85.7201 248.646 92.6437C256.58 99.6575 260.961 109.985 261.789 123.627H171.131Z" fill="#214C2C"/>
<path d="M927.269 98.3641C922.225 85.46 914.489 75.6485 904.061 68.9297C893.632 62.211 880.892 58.8574 865.839 58.8688C852.314 58.6732 839.012 62.3275 827.481 69.4065C816.13 76.4219 806.879 86.3727 800.702 98.2107C794.057 111.025 790.708 125.296 790.959 139.732C790.694 154.16 794.162 168.411 801.025 181.1C807.477 193.027 817.068 202.956 828.758 209.811C840.448 216.665 853.789 220.183 867.335 219.983C878.313 220.202 889.187 217.81 899.062 213.003C907.92 208.625 915.568 202.137 921.335 194.106C927.053 186.051 930.814 176.771 932.319 167.004H909.11C906.61 175.633 901.34 183.196 894.114 188.523C886.338 194.146 876.923 197.037 867.335 196.745C858.468 196.904 849.716 194.713 841.967 190.395C834.52 186.139 828.326 179.991 824.012 172.571C819.312 164.411 816.462 155.315 815.664 145.929H933.254C934.331 127.134 932.336 111.28 927.269 98.3641ZM817.262 123.627C820.153 110.814 825.928 100.691 834.588 93.2569C843.248 85.8232 853.977 82.1062 866.774 82.1062C877.102 81.9529 887.106 85.7174 894.777 92.6439C902.712 99.6577 907.098 109.985 907.937 123.627H817.262Z" fill="#214C2C"/>
<path d="M996.147 52.6716V61.9666H1034.83V85.2044H996.147V216.884H971.374V85.2044H943.847V61.9666H971.374V52.6716C971.374 40.2782 973.596 30.2058 978.039 22.4542C982.242 14.9307 988.752 8.9617 996.606 5.43034C1005.24 1.67952 1014.57 -0.166731 1023.98 0.01686H1038.23V24.8037H1023.98C1019.19 24.5375 1014.4 25.2734 1009.92 26.9654C1005.7 28.5921 1002.15 31.5896 999.836 35.4773C997.354 39.495 996.147 45.2322 996.147 52.6716Z" fill="#214C2C"/>
<path d="M1357.62 98.2448C1352.38 86.6969 1344.17 76.7547 1333.82 69.4405C1323.65 62.3923 1311.53 58.7071 1299.17 58.9024C1287.6 58.9024 1278.17 61.0194 1270.86 65.2527C1266.98 67.4745 1263.47 70.2758 1260.43 73.5602C1257.94 76.3626 1255.77 79.4477 1253.99 82.7529C1250.29 89.5217 1247.8 96.8841 1246.63 104.509H1245.03L1246.56 0.0170898H1221.8V217.157H1246.97L1245.27 207.112L1239.57 173.695H1243.82C1244.29 178.995 1245.66 184.176 1247.87 189.016C1250.46 194.537 1254.06 199.525 1258.48 203.725C1263.76 209.132 1270.1 213.377 1277.11 216.188C1284.12 219 1291.64 220.315 1299.18 220.051C1306.17 220.098 1313.12 218.947 1319.72 216.646C1324.5 214.918 1329.04 212.584 1333.22 209.7C1343.6 202.459 1351.92 192.638 1357.37 181.202C1363.52 168.296 1366.59 154.133 1366.33 139.834C1366.57 125.494 1363.59 111.282 1357.62 98.2448ZM1335.18 169.047C1331.34 177.165 1325.41 184.115 1318 189.186C1310.58 194.1 1301.84 196.641 1292.94 196.473C1282.42 196.473 1273.76 193.89 1266.95 188.727C1261.49 184.578 1257.03 179.255 1253.91 173.15C1253.06 171.516 1252.29 169.84 1251.61 168.128C1248.38 159.824 1246.65 151.009 1246.51 142.098C1246.51 141.332 1246.51 140.566 1246.51 139.783C1246.3 129.585 1248.04 119.441 1251.61 109.889C1254.65 101.784 1260.04 94.7722 1267.08 89.7499C1274.01 84.8924 1282.62 82.4636 1292.93 82.4636C1308.4 82.4636 1320.36 87.8887 1328.82 98.7386C1337.27 109.588 1341.5 123.27 1341.5 139.783C1341.66 149.891 1339.48 159.898 1335.11 169.013L1335.18 169.047Z" fill="#214C2C"/>
<path d="M1162.19 61.9838L1162.84 65.7972L1169.64 105.429H1165.39C1164.99 98.1537 1162.99 91.0572 1159.53 84.6431C1156.08 78.2291 1151.26 72.6547 1145.41 68.3167C1132.88 59.1408 1119.74 58.9709 1113.11 58.8687C1105.37 58.7821 1097.69 60.1086 1090.43 62.7839C1085.83 64.4751 1081.45 66.6978 1077.37 69.4064C1066.57 76.6137 1057.87 86.551 1052.15 98.2107C1046.07 111.173 1042.9 125.314 1042.87 139.637C1042.84 153.959 1045.95 168.113 1051.98 181.1C1057.54 192.554 1065.96 202.372 1076.43 209.598C1081.72 213.231 1087.56 215.985 1093.72 217.752C1099.03 219.219 1104.51 219.969 1110.01 219.983C1114.74 219.983 1128.49 220.17 1140.48 213.428C1160.88 201.988 1164.85 177.116 1165.37 173.422H1169.62L1163.94 206.721L1162.24 216.935H1187.41V62.0179L1162.19 61.9838ZM1162.58 141.792C1162.48 150.774 1160.81 159.67 1157.65 168.077C1156.94 169.926 1156.12 171.734 1155.21 173.49C1152.12 179.468 1147.72 184.666 1142.33 188.692C1135.41 193.845 1126.69 196.427 1116.18 196.438C1107.34 196.566 1098.66 194.027 1091.28 189.152C1083.8 184.123 1077.81 177.165 1073.95 169.013C1069.59 159.878 1067.42 149.853 1067.61 139.732C1067.61 123.196 1071.84 109.515 1080.29 98.6874C1088.75 87.8602 1100.71 82.4352 1116.18 82.4125C1126.51 82.4125 1135.13 84.8413 1142.03 89.6988C1147.57 93.6161 1152.08 98.8062 1155.21 104.833C1156.06 106.46 1156.82 108.13 1157.5 109.838C1160.8 118.542 1162.53 127.766 1162.6 137.076C1162.6 137.945 1162.6 138.779 1162.6 139.732C1162.6 140.686 1162.6 141.111 1162.58 141.792Z" fill="#214C2C"/>
<path d="M546.786 113.396V216.884H522.03V119.593C522.03 107.608 519.247 98.6249 513.682 92.6438C508.116 86.6627 499.763 83.6665 488.62 83.6551C480.327 83.6046 472.182 85.8557 465.089 90.1584C463.065 91.3794 461.128 92.7387 459.291 94.2269C454.45 98.3012 450.556 103.385 447.882 109.123C444.943 115.682 443.542 122.827 443.784 130.011C443.886 145.724 443.291 176.333 442.815 216.833H418.06V119.542C418.06 107.557 415.277 98.5737 409.711 92.5927C404.146 86.6116 395.786 83.6154 384.632 83.604C376.345 83.5558 368.206 85.8068 361.118 90.1073C354.056 94.3705 348.106 100.252 343.758 107.267C343.605 107.489 343.469 107.71 343.333 107.931C340.938 111.622 339.078 115.634 337.807 119.848C336.612 124.109 336.124 128.537 336.362 132.956V216.799H311.606V61.8815H336.77L329.357 105.327H333.608C333.83 97.4385 336.091 89.7432 340.171 82.9914C342.875 78.736 346.212 74.9182 350.066 71.6703C353.58 68.5862 357.477 65.9714 361.662 63.8906C366.298 61.609 371.25 60.0367 376.352 59.2261C380.736 58.5707 385.18 58.4222 389.597 58.7835C397.945 59.1921 404.236 59.6175 411.871 62.4946C418.19 64.7947 423.905 68.503 428.584 73.339C433.239 78.2825 436.822 84.1362 439.109 90.5329C440.296 93.792 441.178 97.1547 441.744 100.577C442.603 97.8432 443.631 95.165 444.822 92.5586C447.79 85.8736 451.872 79.7428 456.893 74.4283C461.613 69.4484 467.303 65.4906 473.611 62.7996C479.919 60.1087 486.711 58.7419 493.568 58.7835C501.155 58.6736 508.699 59.9306 515.841 62.4946C522.161 64.7947 527.876 68.503 532.555 73.339C537.21 78.2825 540.793 84.1362 543.079 90.5329C545.656 97.8743 546.911 105.615 546.786 113.396Z" fill="#214C2C"/>
<path d="M781.847 71.8067C781.847 72.2152 781.847 72.6408 781.847 73.0835C781.455 77.7939 780.79 82.4776 779.857 87.1111L747.977 203.47L744.577 216.135C744.515 217.203 744.033 218.202 743.236 218.914C742.439 219.626 741.392 219.992 740.326 219.931H723.97C723.443 219.931 722.677 219.778 721.997 218.518C721.432 216.853 721.487 215.04 722.15 213.411L755.322 104.782C756.51 101.098 757.296 97.2968 757.669 93.444C757.669 91.1457 756.479 89.8181 754.438 89.8181C752.398 89.8181 749.932 91.7927 746.311 96.0487C740.625 103.306 735.417 110.926 730.72 118.861C723.154 131.016 716.098 142.235 709.127 153.147C701.475 165.149 696.391 173.167 693.62 177.644C685.799 189.94 678.768 202.723 672.571 215.914C671.483 218.57 669.969 219.863 667.963 219.863H651.93C651.678 219.891 651.424 219.855 651.189 219.76C650.955 219.665 650.748 219.514 650.586 219.319C650.059 218.689 649.583 217.139 650.263 213.411L683.435 104.782C684.623 101.098 685.41 97.2968 685.782 93.444C685.782 90.2945 683.895 89.8181 682.773 89.8181C681.072 89.8181 679.185 90.8563 677.008 92.9843C673.94 96.2465 671.143 99.754 668.643 103.471C664.308 109.94 659.343 117.669 653.902 126.453C648.461 135.238 641.541 146.082 632.683 159.871C617.125 184.096 607.298 199.826 603.506 206.636C600.344 212.288 597.844 216.765 597.504 217.242C597.27 217.615 596.996 217.964 596.688 218.28C596.464 218.524 596.214 218.741 595.94 218.927C595.634 219.114 595.345 219.284 595.073 219.421C594.819 219.554 594.558 219.674 594.291 219.778C594.121 219.834 593.943 219.863 593.764 219.863H584.515C583.756 219.949 582.988 219.864 582.267 219.614C581.547 219.363 580.891 218.954 580.349 218.417C579.482 217.293 579.38 215.369 580.077 212.747L608.046 107.199L606.346 108.255C601.146 111.33 595.279 113.099 589.248 113.41C583.217 113.722 577.2 112.566 571.712 110.042L566.611 89.4266L566.832 89.3243C585.824 80.6932 602.231 73.2196 616.53 55.5317C623.891 56.7937 631.325 57.5844 638.787 57.8983C639.358 57.8277 639.937 57.8809 640.486 58.0541C641.034 58.2274 641.539 58.5166 641.966 58.9024C642.34 59.3621 642.799 60.3155 641.524 66.6995C641.337 67.6188 641.167 68.402 641.048 68.9127L615.544 154.951L651.81 94.9252C657.287 85.4227 664.409 76.9717 672.843 69.968C680.409 63.9415 686.683 60.8775 691.546 60.8775H698.177C702.325 60.8775 705.42 62.1201 707.341 64.5545C710.521 68.6232 710.742 76.1646 708.14 86.9918L689.862 152.721L723.68 94.7378C730.056 83.5701 737.061 75.0584 744.526 69.4235C751.99 63.7886 758.213 61.0134 763.365 61.0134H770.012C771.735 60.9807 773.453 61.1989 775.113 61.6605C777.234 62.2097 779.061 63.5574 780.214 65.4227C781.347 67.3548 781.913 69.5674 781.847 71.8067Z" fill="#214C2C"/>
<path d="M1357.79 22.6756C1356.69 28.8723 1352.69 32.1576 1346.21 32.1576C1338.8 32.1576 1334.12 27.5782 1334.12 20.2409C1334.12 12.9036 1338.83 8.32421 1346.28 8.32421C1347.86 8.24288 1349.43 8.47977 1350.92 9.0208C1352.4 9.56182 1353.76 10.3961 1354.92 11.4738C1356.38 12.982 1357.32 14.9225 1357.59 17.0066H1354.07C1353.3 13.3124 1350.48 11.2693 1346.25 11.2693C1341.15 11.2693 1337.61 14.8273 1337.61 20.2239C1337.53 21.395 1337.7 22.5693 1338.11 23.6706C1338.51 24.772 1339.14 25.7759 1339.96 26.617C1340.78 27.4581 1341.76 28.1175 1342.85 28.553C1343.94 28.9884 1345.11 29.1899 1346.28 29.1444C1347.51 29.1976 1348.74 28.9691 1349.86 28.4765C1350.99 27.9838 1351.99 27.2401 1352.79 26.3015C1353.6 25.2198 1354.11 23.9467 1354.27 22.6075L1357.79 22.6756Z" fill="#214C2C"/>
<path d="M1345.96 40.5512C1341.95 40.5512 1338.04 39.3618 1334.71 37.1339C1331.38 34.906 1328.78 31.7396 1327.25 28.0347C1325.72 24.3299 1325.32 20.253 1326.1 16.32C1326.88 12.3869 1328.81 8.77415 1331.64 5.93857C1334.47 3.103 1338.08 1.17193 1342.01 0.389602C1345.94 -0.392731 1350.01 0.00876855 1353.71 1.54337C1357.41 3.07797 1360.57 5.67699 1362.79 9.01127C1365.02 12.3455 1366.21 16.2654 1366.21 20.2755C1366.2 25.6501 1364.06 30.8019 1360.27 34.6024C1356.47 38.4028 1351.33 40.5422 1345.96 40.5512ZM1345.96 3.40494C1342.63 3.40494 1339.37 4.39444 1336.6 6.24821C1333.83 8.10198 1331.67 10.7369 1330.39 13.8196C1329.12 16.9023 1328.78 20.2942 1329.43 23.5668C1330.08 26.8394 1331.69 29.8457 1334.04 32.2051C1336.4 34.5645 1339.4 36.1712 1342.67 36.8222C1345.94 37.4732 1349.33 37.139 1352.41 35.8621C1355.48 34.5852 1358.12 32.4229 1359.97 29.6486C1361.82 26.8742 1362.81 23.6122 1362.81 20.2755C1362.8 15.8038 1361.02 11.5182 1357.86 8.35625C1354.7 5.19433 1350.42 3.41394 1345.96 3.40494Z" fill="#214C2C"/>
</svg>
