<svg width="63" height="47" viewBox="0 0 63 47" fill="none" xmlns="http://www.w3.org/2000/svg">
<path d="M62.9945 4.65264C62.9945 4.76945 62.9945 4.89112 62.9945 5.01765C62.8799 6.36427 62.6856 7.70324 62.4127 9.02785L53.0881 42.292L52.0934 45.9129C52.0755 46.2181 51.9344 46.5039 51.7013 46.7074C51.4681 46.9109 51.162 47.0154 50.8502 46.9982H46.066C45.9118 46.9982 45.688 46.9544 45.4891 46.5943C45.3239 46.1182 45.3397 45.5998 45.5338 45.1343L55.2364 14.0795C55.5836 13.0264 55.8138 11.9397 55.9227 10.8383C55.9227 10.1813 55.5746 9.80159 54.9779 9.80159C54.3811 9.80159 53.66 10.3662 52.6007 11.5829C50.9375 13.6575 49.4141 15.8359 48.0403 18.1043C45.8272 21.5792 43.7634 24.7863 41.7244 27.9059C39.4865 31.3126 37.9996 33.6293 37.189 34.9092C34.9013 38.4243 32.8448 42.0785 31.0322 45.8497C30.7139 46.6089 30.2714 46.9788 29.6845 46.9788H24.9551C24.8815 46.9866 24.8072 46.9765 24.7386 46.9493C24.67 46.9221 24.6094 46.8787 24.5622 46.823C24.408 46.6429 24.2688 46.2001 24.4677 45.1343L34.1703 14.0795C34.5176 13.0264 34.7476 11.9397 34.8565 10.8383C34.8565 9.93792 34.3045 9.80159 33.9763 9.80159C33.479 9.80159 32.927 10.0985 32.2904 10.7069C31.393 11.6395 30.5747 12.642 29.8437 13.7047C28.5756 15.5541 27.1233 17.7636 25.5319 20.2749C23.9405 22.7861 21.9165 25.8863 19.3255 29.8284C14.7751 36.7537 11.9007 41.2506 10.7916 43.1973C9.86665 44.8131 9.13558 46.093 9.03612 46.2293C8.96744 46.3362 8.88743 46.4356 8.79742 46.5261C8.73195 46.5957 8.65856 46.6578 8.57863 46.7111C8.48912 46.7646 8.40457 46.8133 8.325 46.8522C8.25077 46.8905 8.17441 46.9246 8.09625 46.9544C8.04649 46.9704 7.99444 46.9787 7.94206 46.9788H5.23671C5.01493 47.0034 4.79024 46.979 4.57937 46.9074C4.36851 46.8358 4.17673 46.7188 4.0182 46.5651C3.76457 46.2439 3.73477 45.6939 3.93867 44.9444L12.1194 14.7705L11.6221 15.0723C10.1012 15.9515 8.38531 16.4571 6.62119 16.5461C4.85708 16.6351 3.09721 16.3048 1.49194 15.5834L0 9.68966L0.0645923 9.66043C5.61957 7.19299 10.4186 5.05656 14.601 0C16.754 0.360781 18.9284 0.586681 21.1109 0.676426C21.4475 0.6481 21.7817 0.751379 22.0408 0.963608C22.4038 1.38215 22.1254 2.23873 21.9911 2.58427V2.65723C21.9584 3.05167 21.89 3.44248 21.7871 3.8252L14.3275 28.4218L24.9352 11.2616C26.537 8.54505 28.6201 6.1292 31.087 4.127C33.3 2.40417 35.1351 1.52811 36.5574 1.52811H38.4969C39.7103 1.52811 40.6155 1.88346 41.1775 2.5794C42.1074 3.74256 42.1721 5.8985 41.4112 8.99375L36.1247 27.7454L46.0163 11.1692C47.8812 7.97658 49.9301 5.54315 52.1133 3.93226C54.2965 2.32136 56.1166 1.52811 57.6235 1.52811H59.568C60.0719 1.51878 60.5744 1.58113 61.06 1.71311C61.6803 1.87012 62.2148 2.2554 62.5519 2.78864C62.8784 3.35582 63.0319 4.0027 62.9945 4.65264Z" fill="#214C2C"/>
</svg>
