<svg width="1963" height="317" viewBox="0 0 1963 317" fill="none" xmlns="http://www.w3.org/2000/svg">
<path d="M204.436 55.5254V22.1519H0V311.391H35.554V184.131H173.766V150.879H35.554V55.5254H204.436Z" fill="#214C2C"/>
<path d="M403.769 141.27C396.492 122.737 385.381 108.646 370.437 98.9962C355.492 89.3468 337.195 84.5304 315.543 84.5467C296.111 84.2612 276.997 89.5096 260.429 99.6809C244.134 109.758 230.856 124.049 221.994 141.05C212.45 159.453 207.641 179.949 208.001 200.683C207.624 221.4 212.595 241.864 222.433 260.095C231.706 277.218 245.483 291.475 262.27 301.318C279.057 311.162 298.215 316.218 317.667 315.938C333.434 316.251 349.05 312.815 363.233 305.913C375.951 299.62 386.934 290.302 395.222 278.775C403.434 267.206 408.835 253.877 410.997 239.85H377.665C374.058 252.241 366.482 263.101 356.103 270.755C344.946 278.835 331.43 282.988 317.667 282.564C304.932 282.796 292.362 279.649 281.234 273.444C270.538 267.332 261.643 258.502 255.448 247.845C248.686 236.13 244.592 223.065 243.458 209.582H412.34C413.87 182.59 411.013 159.819 403.769 141.27ZM245.778 177.553C249.897 159.15 258.191 144.611 270.661 133.935C283.131 123.259 298.539 117.92 316.886 117.92C331.719 117.705 346.085 123.111 357.104 133.054C368.5 143.128 374.792 157.96 375.98 177.553H245.778Z" fill="#214C2C"/>
<path d="M1331.74 141.27C1324.5 122.738 1313.39 108.646 1298.41 98.9969C1283.43 89.3474 1265.13 84.531 1243.51 84.5473C1224.09 84.2665 1204.99 89.5147 1188.43 99.6815C1172.12 109.757 1158.84 124.048 1149.97 141.05C1140.42 159.454 1135.61 179.95 1135.97 200.683C1135.59 221.404 1140.57 241.871 1150.43 260.095C1159.7 277.224 1173.47 291.485 1190.26 301.33C1207.05 311.174 1226.21 316.227 1245.66 315.939C1261.43 316.254 1277.05 312.818 1291.23 305.914C1303.95 299.627 1314.94 290.308 1323.22 278.775C1331.43 267.206 1336.83 253.878 1338.99 239.851H1305.66C1302.07 252.243 1294.5 263.105 1284.12 270.756C1272.96 278.832 1259.43 282.985 1245.66 282.565C1232.93 282.793 1220.36 279.647 1209.23 273.445C1198.53 267.333 1189.64 258.503 1183.44 247.846C1176.69 236.126 1172.6 223.063 1171.45 209.583H1340.34C1341.88 182.59 1339.02 159.82 1331.74 141.27ZM1173.75 177.553C1177.9 159.151 1186.2 144.612 1198.63 133.935C1211.07 123.259 1226.48 117.921 1244.86 117.921C1259.69 117.701 1274.06 123.107 1285.08 133.055C1296.47 143.128 1302.77 157.961 1303.98 177.553H1173.75Z" fill="#214C2C"/>
<path d="M1430.66 75.6468V88.9963H1486.22V122.37H1430.66V311.488H1395.08V122.37H1355.55V88.9963H1395.08V75.6468C1395.08 57.8475 1398.27 43.3815 1404.66 32.2487C1410.69 21.4435 1420.04 12.8708 1431.32 7.79907C1443.72 2.41215 1457.13 -0.239422 1470.64 0.0242505H1491.1V35.6231H1470.64C1463.76 35.2407 1456.88 36.2977 1450.44 38.7276C1444.38 41.064 1439.29 45.3689 1435.96 50.9525C1432.4 56.7226 1430.66 64.9623 1430.66 75.6468Z" fill="#214C2C"/>
<path d="M1949.81 141.099C1942.29 124.514 1930.49 110.235 1915.62 99.7302C1901.02 89.6075 1883.62 84.3149 1865.86 84.5954C1849.25 84.5954 1835.7 87.6358 1825.2 93.7156C1819.63 96.9066 1814.59 100.93 1810.23 105.647C1806.64 109.672 1803.54 114.102 1800.98 118.849C1795.67 128.571 1792.09 139.145 1790.4 150.096H1788.11L1790.31 0.0244141H1754.75V311.88H1790.89L1788.45 297.454L1780.27 249.46H1786.38C1787.05 257.072 1789.02 264.513 1792.19 271.464C1795.91 279.393 1801.08 286.557 1807.42 292.589C1815 300.355 1824.12 306.452 1834.18 310.489C1844.25 314.526 1855.05 316.416 1865.88 316.036C1875.92 316.105 1885.9 314.451 1895.38 311.146C1902.24 308.665 1908.76 305.312 1914.77 301.171C1929.68 290.77 1941.63 276.665 1949.45 260.242C1958.28 241.706 1962.69 221.365 1962.31 200.829C1962.66 180.233 1958.39 159.822 1949.81 141.099V141.099ZM1917.58 242.785C1912.06 254.444 1903.55 264.425 1892.92 271.709C1882.25 278.766 1869.7 282.416 1856.92 282.173C1841.81 282.173 1829.37 278.465 1819.58 271.048C1811.75 265.09 1805.35 257.445 1800.86 248.677C1799.63 246.331 1798.53 243.923 1797.56 241.465C1792.92 229.538 1790.44 216.879 1790.23 204.081C1790.23 202.981 1790.23 201.88 1790.23 200.756C1789.94 186.109 1792.43 171.541 1797.56 157.823C1801.93 146.182 1809.66 136.111 1819.78 128.898C1829.73 121.922 1842.1 118.434 1856.9 118.434C1879.12 118.434 1896.3 126.225 1908.45 141.808C1920.59 157.39 1926.66 177.04 1926.66 200.756C1926.9 215.273 1923.75 229.645 1917.48 242.736L1917.58 242.785Z" fill="#214C2C"/>
<path d="M1669.14 89.0211L1670.07 94.4978L1679.83 151.417H1673.73C1673.15 140.968 1670.28 130.776 1665.32 121.564C1660.36 112.352 1653.43 104.347 1645.04 98.1163C1627.04 84.938 1608.16 84.6939 1598.64 84.5472C1587.53 84.4227 1576.49 86.3279 1566.07 90.1702C1559.47 92.599 1553.17 95.7913 1547.31 99.6814C1531.81 110.033 1519.32 124.304 1511.1 141.05C1502.36 159.666 1497.81 179.976 1497.77 200.546C1497.72 221.116 1502.19 241.444 1510.86 260.095C1518.83 276.546 1530.93 290.647 1545.97 301.024C1553.56 306.242 1561.95 310.197 1570.8 312.735C1578.42 314.842 1586.29 315.919 1594.2 315.938C1600.99 315.938 1620.74 316.207 1637.96 306.525C1667.26 290.095 1672.95 254.374 1673.71 249.068H1679.81L1671.65 296.892L1669.21 311.562H1705.35V89.0701L1669.14 89.0211ZM1669.7 203.641C1669.55 216.542 1667.16 229.317 1662.62 241.391C1661.6 244.048 1660.42 246.643 1659.1 249.166C1654.67 257.752 1648.35 265.217 1640.62 271C1630.67 278.4 1618.15 282.108 1603.06 282.124C1590.36 282.307 1577.89 278.661 1567.29 271.66C1556.54 264.437 1547.95 254.444 1542.4 242.736C1536.15 229.617 1533.03 215.219 1533.3 200.683C1533.3 176.934 1539.37 157.285 1551.51 141.735C1563.66 126.185 1580.84 118.393 1603.06 118.361C1617.89 118.361 1630.26 121.849 1640.18 128.825C1648.13 134.451 1654.62 141.905 1659.1 150.561C1660.33 152.897 1661.43 155.297 1662.4 157.749C1667.14 170.25 1669.62 183.497 1669.73 196.869C1669.73 198.116 1669.73 199.314 1669.73 200.683C1669.73 202.052 1669.73 202.663 1669.7 203.641Z" fill="#214C2C"/>
<path d="M785.292 162.858V311.488H749.738V171.759C749.738 154.546 745.741 141.644 737.748 133.055C729.755 124.465 717.757 120.161 701.754 120.145C689.844 120.072 678.146 123.305 667.959 129.485C665.052 131.239 662.27 133.191 659.632 135.328C652.679 141.18 647.087 148.481 643.246 156.722C639.026 166.141 637.013 176.403 637.361 186.721C637.508 209.288 636.653 253.249 635.969 311.415H600.415V171.685C600.415 154.473 596.419 141.571 588.426 132.981C580.432 124.391 568.426 120.088 552.407 120.072C540.505 120.002 528.816 123.235 518.636 129.412C508.494 135.534 499.949 143.981 493.704 154.057C493.484 154.375 493.289 154.692 493.094 155.01C489.654 160.311 486.982 166.073 485.157 172.125C483.441 178.244 482.74 184.604 483.082 190.951V311.366H447.528V88.8738H483.668L473.021 151.269H479.126C479.445 139.941 482.693 128.889 488.552 119.192C492.436 113.08 497.228 107.597 502.764 102.932C507.809 98.5031 513.407 94.7477 519.417 91.7593C526.076 88.4825 533.188 86.2243 540.515 85.0602C546.811 84.1188 553.194 83.9055 559.538 84.4244C571.528 85.0112 580.563 85.6223 591.527 89.7543C600.603 93.0578 608.811 98.3836 615.531 105.329C622.216 112.429 627.362 120.836 630.646 130.023C632.351 134.704 633.618 139.533 634.431 144.448C635.665 140.522 637.141 136.675 638.851 132.932C643.114 123.331 648.977 114.526 656.188 106.894C662.967 99.7413 671.139 94.0572 680.198 90.1924C689.258 86.3277 699.013 84.3647 708.86 84.4244C719.756 84.2667 730.592 86.0719 740.849 89.7543C749.926 93.0578 758.134 98.3836 764.853 105.329C771.538 112.429 776.685 120.836 779.969 130.023C783.669 140.567 785.472 151.684 785.292 162.858V162.858Z" fill="#214C2C"/>
<path d="M1122.89 103.128C1122.89 103.715 1122.89 104.326 1122.89 104.962C1122.32 111.727 1121.37 118.454 1120.03 125.109L1074.24 292.222L1069.36 310.413C1069.27 311.946 1068.58 313.381 1067.43 314.404C1066.29 315.426 1064.79 315.952 1063.25 315.865H1039.76C1039.01 315.865 1037.91 315.645 1036.93 313.835C1036.12 311.444 1036.2 308.839 1037.15 306.5L1084.79 150.488C1086.5 145.197 1087.63 139.737 1088.16 134.204C1088.16 130.903 1086.45 128.996 1083.52 128.996C1080.59 128.996 1077.05 131.832 1071.85 137.945C1063.68 148.367 1056.2 159.312 1049.46 170.708C1038.59 188.165 1028.46 204.277 1018.44 219.949C1007.46 237.186 1000.15 248.701 996.175 255.132C984.941 272.791 974.844 291.15 965.944 310.095C964.381 313.909 962.207 315.767 959.326 315.767H936.299C935.938 315.806 935.573 315.755 935.236 315.619C934.899 315.482 934.602 315.265 934.37 314.985C933.613 314.08 932.929 311.855 933.906 306.5L981.548 150.488C983.253 145.197 984.383 139.737 984.918 134.204C984.918 129.681 982.207 128.996 980.595 128.996C978.154 128.996 975.443 130.487 972.317 133.544C967.91 138.229 963.893 143.266 960.303 148.605C954.076 157.896 946.946 168.996 939.132 181.612C931.318 194.228 921.379 209.802 908.656 229.606C886.313 264.398 872.199 286.99 866.754 296.769C862.212 304.887 858.622 311.317 858.134 312.002C857.796 312.539 857.404 313.039 856.962 313.493C856.64 313.843 856.28 314.155 855.887 314.422C855.448 314.691 855.033 314.936 854.642 315.131C854.277 315.323 853.902 315.495 853.519 315.645C853.274 315.725 853.019 315.766 852.762 315.767H839.478C838.389 315.891 837.286 315.768 836.25 315.409C835.215 315.049 834.273 314.461 833.495 313.689C832.25 312.075 832.103 309.312 833.104 305.547L873.274 153.959L870.832 155.475C863.363 159.892 854.938 162.433 846.276 162.88C837.614 163.327 828.972 161.667 821.09 158.042L813.764 128.434L814.082 128.287C841.358 115.891 864.922 105.158 885.459 79.7544C896.03 81.5669 906.707 82.7024 917.423 83.1532C918.243 83.0519 919.075 83.1282 919.863 83.3771C920.651 83.626 921.376 84.0413 921.99 84.5954C922.527 85.2555 923.186 86.6249 921.355 95.7935C921.086 97.1138 920.842 98.2386 920.671 98.9721L884.042 222.541L936.128 136.331C943.993 122.684 954.222 110.546 966.335 100.488C977.201 91.8325 986.212 87.4319 993.195 87.4319H1002.72C1008.68 87.4319 1013.12 89.2165 1015.88 92.7128C1020.45 98.5563 1020.76 109.387 1017.03 124.937L990.778 219.338L1039.35 136.062C1048.5 120.023 1058.57 107.799 1069.29 99.7057C1080 91.6129 1088.94 87.6271 1096.34 87.6271H1105.89C1108.36 87.5802 1110.83 87.8935 1113.21 88.5565C1116.26 89.3453 1118.89 91.2809 1120.54 93.9598C1122.17 96.7346 1122.98 99.9123 1122.89 103.128Z" fill="#214C2C"/>
<path d="M1950.06 32.5665C1948.47 41.4662 1942.73 46.1846 1933.43 46.1846C1922.78 46.1846 1916.06 39.6076 1916.06 29.0698C1916.06 18.532 1922.83 11.9551 1933.52 11.9551C1935.79 11.8382 1938.05 12.1785 1940.19 12.9555C1942.32 13.7325 1944.27 14.9307 1945.93 16.4785C1948.03 18.6445 1949.37 21.4315 1949.76 24.4246H1944.71C1943.61 19.119 1939.56 16.1848 1933.48 16.1848C1926.15 16.1848 1921.07 21.2948 1921.07 29.0453C1920.96 30.7273 1921.2 32.4138 1921.79 33.9955C1922.37 35.5772 1923.27 37.0191 1924.45 38.2271C1925.62 39.435 1927.04 40.3821 1928.6 41.0075C1930.16 41.6329 1931.84 41.9222 1933.52 41.8569C1935.29 41.9334 1937.05 41.6052 1938.67 40.8977C1940.29 40.1901 1941.73 39.122 1942.88 37.774C1944.03 36.2204 1944.77 34.392 1945 32.4686L1950.06 32.5665Z" fill="#214C2C"/>
<path d="M1933.06 58.2395C1927.31 58.2395 1921.69 56.5313 1916.9 53.3316C1912.12 50.1319 1908.39 45.5843 1906.19 40.2634C1903.99 34.9425 1903.41 29.0873 1904.54 23.4387C1905.66 17.7901 1908.43 12.6014 1912.5 8.52896C1916.56 4.45652 1921.74 1.68313 1927.39 0.559545C1933.03 -0.564039 1938.88 0.0125934 1944.19 2.21658C1949.5 4.42057 1954.05 8.15327 1957.24 12.942C1960.44 17.7306 1962.14 23.3603 1962.14 29.1196C1962.13 36.8386 1959.06 44.2376 1953.61 49.6958C1948.16 55.154 1940.77 58.2265 1933.06 58.2395V58.2395ZM1933.06 4.89017C1928.27 4.89017 1923.6 6.31128 1919.62 8.97366C1915.64 11.636 1912.53 15.4203 1910.7 19.8477C1908.87 24.275 1908.39 29.1464 1909.33 33.8465C1910.26 38.5466 1912.56 42.8642 1915.95 46.2528C1919.33 49.6414 1923.64 51.949 1928.34 52.8839C1933.03 53.8188 1937.9 53.3389 1942.32 51.5051C1946.74 49.6712 1950.52 46.5657 1953.18 42.5812C1955.84 38.5966 1957.26 33.9117 1957.26 29.1196C1957.25 22.6974 1954.69 16.5424 1950.16 12.0012C1945.62 7.46008 1939.47 4.90309 1933.06 4.89017V4.89017Z" fill="#214C2C"/>
</svg>
